<svg xmlns="http://www.w3.org/2000/svg" viewBox="0 0 24 24"><path fill="#000" d="M182 209Q165 209 165 226Q165 233 170 238L234 302Q217 306 189 306Q124 306 79.0 261.0Q34 216 34.0 151.0Q34 86 79.0 41.0Q124 -4 189.0 -4.0Q254 -4 299.0 41.0Q344 86 344 151Q344 169 361 169Q379 169 379 151Q379 72 323.5 16.5Q268 -39 189.0 -39.0Q110 -39 55.0 16.5Q0 72 0.0 151.0Q0 230 55.0 285.0Q110 340 189 340Q208 340 226 337L169 393Q165 397 165 405Q165 423 181 423Q189 423 194 418L282 328Q288 322 288.0 315.0Q288 308 282 302L194 214Q189 209 182 209Z" transform="translate(3.79654 20.31169) scale(0.04329 -0.04329)"/></svg>
