<svg xmlns="http://www.w3.org/2000/svg" viewBox="0 0 24 24"><path fill="#000" d="M320 469C262 469 212 436 187 389C160 374 137 352 123 325C76 300 43 250 43 192C43 109 109 43 192 43C250 43 300 76 325 123C352 138 375 160 389 187C436 212 469 262 469 320C469 403 403 469 320 469ZM192 85C133 85 85 133 85 192C85 216 93 238 107 256C107 173 173 107 256 107C238 93 216 85 192 85ZM256 149C197 149 149 197 149 256C149 280 157 302 171 320C171 238 237 171 320 171C302 157 280 149 256 149ZM356 220C345 216 333 213 320 213C261 213 213 261 213 320C213 333 216 345 220 356C231 360 243 363 256 363C315 363 363 315 363 256C363 243 360 231 356 220ZM405 256C405 338 339 405 256 405C274 419 296 427 320 427C379 427 427 379 427 320C427 296 419 274 405 256Z" transform="translate(-0.01878 24.01878) scale(0.04695 -0.04695)"/></svg>
